<?xml version="1.0" encoding="UTF-8" standalone="no"?>
<!-- Created with Inkscape (http://www.inkscape.org/) -->

<svg
   xmlns:dc="http://purl.org/dc/elements/1.1/"
   xmlns:cc="http://creativecommons.org/ns#"
   xmlns:rdf="http://www.w3.org/1999/02/22-rdf-syntax-ns#"
   xmlns:svg="http://www.w3.org/2000/svg"
   xmlns="http://www.w3.org/2000/svg"
   xmlns:sodipodi="http://sodipodi.sourceforge.net/DTD/sodipodi-0.dtd"
   xmlns:inkscape="http://www.inkscape.org/namespaces/inkscape"
   width="96"
   height="96"
   id="svg6517"
   version="1.1"
   inkscape:version="0.48.2 r9819"
   sodipodi:docname="icon.svg">
  <defs
     id="defs6519">
    <linearGradient
       id="Background">
      <stop
         id="stop4178"
         offset="0"
         style="stop-color:#b8b8b8;stop-opacity:1" />
      <stop
         id="stop4180"
         offset="1"
         style="stop-color:#c9c9c9;stop-opacity:1" />
    </linearGradient>
    <filter
       style="color-interpolation-filters:sRGB;"
       inkscape:label="Inner Shadow"
       id="filter1121">
      <feFlood
         flood-opacity="0.59999999999999998"
         flood-color="rgb(0,0,0)"
         result="flood"
         id="feFlood1123" />
      <feComposite
         in="flood"
         in2="SourceGraphic"
         operator="out"
         result="composite1"
         id="feComposite1125" />
      <feGaussianBlur
         in="composite1"
         stdDeviation="1"
         result="blur"
         id="feGaussianBlur1127" />
      <feOffset
         dx="0"
         dy="2"
         result="offset"
         id="feOffset1129" />
      <feComposite
         in="offset"
         in2="SourceGraphic"
         operator="atop"
         result="composite2"
         id="feComposite1131" />
    </filter>
    <filter
       style="color-interpolation-filters:sRGB;"
       inkscape:label="Drop Shadow"
       id="filter950">
      <feFlood
         flood-opacity="0.25"
         flood-color="rgb(0,0,0)"
         result="flood"
         id="feFlood952" />
      <feComposite
         in="flood"
         in2="SourceGraphic"
         operator="in"
         result="composite1"
         id="feComposite954" />
      <feGaussianBlur
         in="composite1"
         stdDeviation="1"
         result="blur"
         id="feGaussianBlur956" />
      <feOffset
         dx="0"
         dy="1"
         result="offset"
         id="feOffset958" />
      <feComposite
         in="SourceGraphic"
         in2="offset"
         operator="over"
         result="composite2"
         id="feComposite960" />
    </filter>
    <clipPath
       clipPathUnits="userSpaceOnUse"
       id="clipPath873">
      <g
         transform="matrix(0,-0.66666667,0.66604479,0,-258.25992,677.00001)"
         id="g875"
         inkscape:label="Layer 1"
         style="fill:#ff00ff;fill-opacity:1;stroke:none;display:inline">
        <path
           style="fill:#ff00ff;fill-opacity:1;stroke:none;display:inline"
           d="m 46.702703,898.22775 50.594594,0 C 138.16216,898.22775 144,904.06497 144,944.92583 l 0,50.73846 c 0,40.86071 -5.83784,46.69791 -46.702703,46.69791 l -50.594594,0 C 5.8378378,1042.3622 0,1036.525 0,995.66429 L 0,944.92583 C 0,904.06497 5.8378378,898.22775 46.702703,898.22775 Z"
           id="path877"
           inkscape:connector-curvature="0"
           sodipodi:nodetypes="sssssssss" />
      </g>
    </clipPath>
    <filter
       inkscape:collect="always"
       id="filter891"
       inkscape:label="Badge Shadow">
      <feGaussianBlur
         inkscape:collect="always"
         stdDeviation="0.71999962"
         id="feGaussianBlur893" />
    </filter>
  </defs>
  <sodipodi:namedview
     id="base"
     pagecolor="#ffffff"
     bordercolor="#666666"
     borderopacity="1.0"
     inkscape:pageopacity="0.0"
     inkscape:pageshadow="2"
     inkscape:zoom="4.0745362"
     inkscape:cx="38.226581"
     inkscape:cy="39.414851"
     inkscape:document-units="px"
     inkscape:current-layer="layer1"
     showgrid="true"
     fit-margin-top="0"
     fit-margin-left="0"
     fit-margin-right="0"
     fit-margin-bottom="0"
     inkscape:window-width="1874"
     inkscape:window-height="1036"
     inkscape:window-x="46"
     inkscape:window-y="0"
     inkscape:window-maximized="1"
     showborder="true"
     showguides="true"
     inkscape:guide-bbox="true"
     inkscape:showpageshadow="false">
    <inkscape:grid
       type="xygrid"
       id="grid821" />
    <sodipodi:guide
       orientation="1,0"
       position="16,48"
       id="guide823" />
    <sodipodi:guide
       orientation="0,1"
       position="64,80"
       id="guide825" />
    <sodipodi:guide
       orientation="1,0"
       position="80,40"
       id="guide827" />
    <sodipodi:guide
       orientation="0,1"
       position="64,16"
       id="guide829" />
  </sodipodi:namedview>
  <metadata
     id="metadata6522">
    <rdf:RDF>
      <cc:Work
         rdf:about="">
        <dc:format>image/svg+xml</dc:format>
        <dc:type
           rdf:resource="http://purl.org/dc/dcmitype/StillImage" />
        <dc:title />
      </cc:Work>
    </rdf:RDF>
  </metadata>
  <g
     inkscape:label="BACKGROUND"
     inkscape:groupmode="layer"
     id="layer1"
     transform="translate(268,-635.29076)"
     style="display:inline">
    <path
       style="fill:#40b391;fill-opacity:1;stroke:none;display:inline;filter:url(#filter1121)"
       d="m -268,700.15563 0,-33.72973 c 0,-27.24324 3.88785,-31.13513 31.10302,-31.13513 l 33.79408,0 c 27.21507,0 31.1029,3.89189 31.1029,31.13513 l 0,33.72973 c 0,27.24325 -3.88783,31.13514 -31.1029,31.13514 l -33.79408,0 c -27.21517,0 -31.10302,-3.89189 -31.10302,-31.13514 z"
       id="path6455"
       inkscape:connector-curvature="0"
       sodipodi:nodetypes="sssssssss" />
  </g>
  <g
     inkscape:groupmode="layer"
     id="layer3"
     inkscape:label="PLACE YOUR PICTOGRAM HERE"
     style="display:inline">
    <g
       id="g4457">
      <path
         style="fill:#ffffff;fill-opacity:1;filter:url(#filter950)"
         id="path3584"
         d="m 59.996112,24.75259 c 0.721438,0.474009 1.421103,0.821996 1.98257,1.324604 1.398039,1.251538 1.535685,2.866747 1.08105,4.570152 -0.505376,1.893451 -1.926848,2.949038 -3.721033,3.109194 -2.926712,0.261267 -5.88147,0.22621 -8.825158,0.269201 -0.811848,0.01181 -1.083264,-0.602982 -1.093596,-1.323312 -0.01587,-1.105959 -0.0055,-2.212287 -0.0055,-3.31843 -1.85e-4,-3.779522 -0.0024,-7.558859 0.0013,-11.338381 0.0015,-1.442322 0.342637,-1.800458 1.79972,-1.771305 2.483333,0.04963 4.979766,0.0044 7.444094,0.257208 1.681263,0.172333 2.934831,1.255781 3.423231,2.960109 0.469765,1.640118 0.225657,3.171189 -1.024774,4.428447 -0.315329,0.316805 -0.70723,0.557961 -1.06186,0.832513 z m -8.202065,7.30608 c 2.423551,-0.153329 4.747467,-0.195951 7.040938,-0.482496 1.519816,-0.189862 2.162468,-1.114631 2.19365,-2.503998 0.03229,-1.440293 -0.58859,-2.469864 -2.108222,-2.671903 -2.342735,-0.31127 -4.724771,-0.325477 -7.126366,-0.46792 0,2.119293 0,3.982853 0,6.126317 z m 0.01661,-8.212213 c 1.943823,0 3.788563,0.0989 5.61762,-0.02897 1.691966,-0.118272 2.617472,-1.162419 2.65216,-2.633894 0.03155,-1.334752 -0.831037,-2.468572 -2.358972,-2.595146 -1.941793,-0.160894 -3.907019,-0.03893 -5.910808,-0.03893 0,1.765954 0,3.535783 0,5.29694 z"
         inkscape:connector-curvature="0" />
      <path
         style="fill:#ffffff;fill-opacity:1;filter:url(#filter950)"
         id="path3586"
         d="m 79.882332,78.735325 c -0.250381,0.232115 -0.515708,0.625677 -0.882331,0.782326 -0.517553,0.221044 -1.057432,0.0751 -1.319992,-0.498548 -0.459247,-1.003371 -0.95429,-1.999914 -1.296189,-3.044431 -0.278242,-0.850411 -0.732139,-1.085847 -1.596204,-1.06186 -2.272437,0.0631 -4.547826,0.03967 -6.821554,0.0081 -0.55095,-0.0076 -0.826424,0.170488 -1.017762,0.681768 -0.387104,1.03363 -0.818306,2.051762 -1.267037,3.060483 -0.391163,0.879564 -0.96573,1.162604 -1.658753,0.827901 -0.803176,-0.388027 -0.73583,-1.053373 -0.450392,-1.730897 2.120216,-5.032167 4.24818,-10.061197 6.374669,-15.090597 0.303889,-0.718485 0.829008,-1.13548 1.628678,-1.135295 0.792659,1.84e-4 1.326449,0.388026 1.63532,1.117767 2.129257,5.028476 4.264786,10.05437 6.391459,15.083954 0.107017,0.251857 0.151115,0.530284 0.280088,0.999311 z m -8.29266,-14.235019 c -1.184929,2.85789 -2.282769,5.505622 -3.413452,8.232694 2.302881,0 4.496163,0 6.819709,0 -1.126255,-2.72209 -2.222803,-5.372405 -3.406257,-8.232694 z"
         inkscape:connector-curvature="0" />
      <path
         style="fill:#ffffff;fill-opacity:1;filter:url(#filter950)"
         id="path3588"
         d="m 18.550158,27.576346 c 0,1.724254 0.0065,3.290199 -0.0052,4.855959 -0.0024,0.333595 0.04631,0.76572 -0.134139,0.977354 -0.284516,0.33378 -0.741365,0.70723 -1.1281,0.710367 -0.331935,0.0028 -0.732878,-0.442457 -0.978093,-0.780481 -0.153882,-0.212188 -0.09871,-0.592096 -0.0989,-0.896908 -0.0048,-4.795808 -0.0052,-9.591617 -0.0022,-14.387425 9.23e-4,-1.451178 0.339316,-1.790125 1.793078,-1.785328 2.059511,0.0066 4.123081,-0.05019 6.177241,0.06273 2.148815,0.118271 4.032487,0.891926 5.138999,2.894792 1.770198,3.204586 0.132295,7.138544 -3.430612,7.942274 -1.652295,0.372712 -3.407732,0.299461 -5.118149,0.399835 -0.69782,0.04096 -1.400069,0.0068 -2.213946,0.0068 z m 0.04557,-2.101949 c 2.153242,-0.102588 4.218658,-0.07159 6.245511,-0.335441 1.850275,-0.240787 2.781502,-1.451916 2.794971,-3.107164 0.01458,-1.782929 -0.923477,-3.085761 -2.78224,-3.325072 -2.049179,-0.263666 -4.13692,-0.226948 -6.258242,-0.323447 0,2.419307 0,4.646908 0,7.091124 z"
         inkscape:connector-curvature="0" />
      <path
         style="fill:#ffffff;fill-opacity:1;filter:url(#filter950)"
         id="path3590"
         d="m 39.987746,61.321367 c 1.204118,0.244661 2.702531,0.537665 4.195409,0.857053 0.747823,0.160156 1.142861,0.626046 0.927352,1.406712 -0.218645,0.791736 -0.815907,0.79229 -1.477748,0.608886 -1.75599,-0.487109 -3.527849,-0.827347 -5.36115,-0.506483 -0.151114,0.02639 -0.306103,0.03543 -0.454635,0.07104 -1.648236,0.39596 -2.60105,1.30357 -2.660094,2.527984 -0.06089,1.265745 0.60003,2.06966 2.363032,2.641274 1.603215,0.519952 3.253297,0.894325 4.862048,1.399147 1.487527,0.466813 2.731684,1.276631 3.278759,2.845528 0.955213,2.739434 -0.616267,5.420931 -3.69926,6.218756 -2.912505,0.753543 -5.732939,0.25684 -8.472189,-0.830668 -0.606487,-0.240787 -1.060938,-0.706492 -0.780665,-1.447857 0.299092,-0.791183 0.891372,-0.781773 1.591037,-0.523827 2.192359,0.808343 4.43675,1.242866 6.775058,0.769411 0.92809,-0.188017 1.764847,-0.554825 2.24642,-1.442876 0.620511,-1.144521 0.351494,-2.324284 -0.798748,-2.921361 -0.833989,-0.432863 -1.767061,-0.684167 -2.670242,-0.972004 -1.110202,-0.353708 -2.24679,-0.62623 -3.351457,-0.995437 -2.490528,-0.832144 -3.793729,-2.471893 -3.692617,-4.574395 0.110153,-2.290519 1.756729,-4.180833 4.204451,-4.733813 0.861297,-0.194843 1.756728,-0.240048 2.975239,-0.397067 z"
         inkscape:connector-curvature="0" />
      <path
         style="fill:#ffffff;fill-opacity:1;filter:url(#filter950)"
         id="path3592"
         d="m 55.666932,61.321182 c 1.204672,0.244477 2.70327,0.537665 4.196332,0.855947 0.748192,0.159417 1.144706,0.625861 0.934179,1.404866 -0.213848,0.791552 -0.812771,0.798194 -1.475165,0.613683 -1.786435,-0.497995 -3.598517,-0.87532 -5.448055,-0.476776 -0.730847,0.157388 -1.495092,0.431756 -2.097151,0.859452 -1.392873,0.989348 -1.306891,2.917487 0.185803,3.748893 0.895616,0.498918 1.928693,0.763691 2.917118,1.079943 1.021637,0.326769 2.076301,0.551872 3.095355,0.885837 2.480381,0.812586 3.627116,2.267824 3.611248,4.505757 -0.01513,2.141988 -1.388998,3.885985 -3.759964,4.544504 -2.996088,0.83196 -5.910439,0.335072 -8.730873,-0.82624 -0.616635,-0.253887 -1.000603,-0.761476 -0.670513,-1.485128 0.304259,-0.666823 0.831591,-0.7076 1.467969,-0.472717 2.220774,0.819228 4.490812,1.279768 6.862516,0.799486 0.927905,-0.188017 1.765401,-0.551319 2.247343,-1.440662 0.62254,-1.148765 0.358136,-2.322254 -0.79432,-2.921915 -0.833435,-0.433601 -1.766692,-0.685273 -2.669873,-0.973111 -1.110202,-0.353707 -2.24679,-0.62623 -3.351641,-0.994883 -2.492005,-0.83159 -3.795944,-2.46894 -3.696861,-4.571443 0.107939,-2.290703 1.752485,-4.181756 4.201314,-4.737133 0.86185,-0.195767 1.757467,-0.240972 2.975239,-0.39836 z"
         inkscape:connector-curvature="0" />
      <path
         style="fill:#ffffff;fill-opacity:1;filter:url(#filter950)"
         id="path3594"
         d="m 79.80576,30.310798 c 0,0.804283 0.04004,1.563545 -0.02362,2.313951 -0.01993,0.236174 -0.270309,0.553902 -0.49615,0.656859 -4.991944,2.274282 -12.196542,0.698005 -13.112639,-6.884472 -0.421977,-3.492238 0.478621,-6.603462 3.368985,-8.751354 2.999594,-2.229076 6.347545,-2.142541 9.703799,-0.759447 0.245215,0.101112 0.493752,0.46054 0.53582,0.731586 0.08395,0.540064 0.02749,1.102453 0.02454,1.655617 -9.22e-4,0.17547 -0.01568,0.350755 -0.03211,0.694499 -1.913563,-1.731451 -4.065698,-2.125566 -6.409356,-1.685323 -1.412801,0.265327 -2.580755,0.966837 -3.469729,2.095122 -2.129071,2.702347 -2.045303,7.149061 0.165691,9.65804 2.221143,2.520051 5.726297,2.638507 9.744761,0.274922 z"
         inkscape:connector-curvature="0" />
      <path
         style="fill:#ffffff;fill-opacity:1;filter:url(#filter950)"
         id="path3596"
         d="m 16.182698,65.383191 c 0,-0.57918 0.0703,-1.050052 -0.01365,-1.491771 -0.214771,-1.130314 0.37345,-1.575908 1.34287,-1.882012 2.331481,-0.735829 4.664253,-0.823472 6.957908,0.02177 3.167868,1.167585 4.775881,3.664756 5.303398,6.85495 0.4622,2.795341 -0.07879,5.424253 -1.862453,7.728241 -1.868912,2.414141 -4.444684,3.197943 -7.327299,3.066941 -1.229396,-0.05591 -2.442925,-0.503531 -3.658667,-0.793582 -0.602244,-0.143734 -0.808712,-0.547628 -0.753728,-1.167401 0.05388,-0.608701 0.01181,-1.22589 0.01181,-2.034048 1.59768,1.455237 3.3843,1.98054 5.382738,1.847692 2.058773,-0.136907 3.697415,-0.998573 4.877178,-2.715816 1.815218,-2.642197 1.495092,-7.145371 -0.678447,-9.344003 -2.384804,-2.412112 -5.903981,-2.476506 -9.581653,-0.09096 z"
         inkscape:connector-curvature="0" />
      <path
         style="fill:#ffffff;fill-opacity:1;filter:url(#filter950)"
         id="path3598"
         d="m 38.907988,24.472687 c 1.638272,-2.384619 3.185027,-4.635653 4.731414,-6.886871 0.156465,-0.227686 0.303889,-0.462015 0.468657,-0.683428 0.576228,-0.774577 1.20006,-0.965177 1.791048,-0.555378 0.565342,0.392086 0.629367,1.135665 0.103326,1.882011 -1.273494,1.806732 -2.456209,3.694647 -3.887092,5.3689 -1.655985,1.937549 -2.427426,4.022707 -2.092354,6.558441 0.119748,0.905395 0.02546,1.840497 0.01181,2.761944 -0.01107,0.750406 -0.35094,1.265192 -1.15264,1.248586 -0.784909,-0.01642 -1.134004,-0.509435 -1.133451,-1.274602 0.0015,-1.812266 0.03727,-3.625824 -0.02399,-5.436061 -0.01827,-0.53951 -0.195951,-1.149872 -0.499471,-1.591038 -1.670562,-2.42761 -3.403673,-4.81223 -5.112798,-7.213271 -0.177684,-0.249643 -0.37751,-0.493935 -0.499102,-0.770702 -0.256471,-0.584346 -0.255179,-1.165371 0.342452,-1.547493 0.587114,-0.375295 1.148396,-0.218092 1.539744,0.319942 0.830114,1.141569 1.622035,2.311184 2.424289,3.473049 0.973295,1.409664 1.941609,2.823387 2.988155,4.345971 z"
         inkscape:connector-curvature="0" />
    </g>
  </g>
  <g
     inkscape:groupmode="layer"
     id="layer2"
     inkscape:label="BADGE"
     style="display:none"
     sodipodi:insensitive="true">
    <g
       style="display:inline"
       transform="translate(-340.00001,-581)"
       id="g4394"
       clip-path="none">
      <g
         id="g855">
        <g
           inkscape:groupmode="maskhelper"
           id="g870"
           clip-path="url(#clipPath873)"
           style="opacity:0.6;filter:url(#filter891)">
          <path
             transform="matrix(1.4999992,0,0,1.4999992,-29.999795,-237.54282)"
             d="m 264,552.36218 c 0,6.62742 -5.37258,12 -12,12 -6.62742,0 -12,-5.37258 -12,-12 0,-6.62741 5.37258,-12 12,-12 6.62742,0 12,5.37259 12,12 z"
             sodipodi:ry="12"
             sodipodi:rx="12"
             sodipodi:cy="552.36218"
             sodipodi:cx="252"
             id="path844"
             style="color:#000000;fill:#000000;fill-opacity:1;fill-rule:nonzero;stroke:none;stroke-width:4;marker:none;visibility:visible;display:inline;overflow:visible;enable-background:accumulate"
             sodipodi:type="arc" />
        </g>
        <g
           id="g862">
          <path
             sodipodi:type="arc"
             style="color:#000000;fill:#f5f5f5;fill-opacity:1;fill-rule:nonzero;stroke:none;stroke-width:4;marker:none;visibility:visible;display:inline;overflow:visible;enable-background:accumulate"
             id="path4398"
             sodipodi:cx="252"
             sodipodi:cy="552.36218"
             sodipodi:rx="12"
             sodipodi:ry="12"
             d="m 264,552.36218 c 0,6.62742 -5.37258,12 -12,12 -6.62742,0 -12,-5.37258 -12,-12 0,-6.62741 5.37258,-12 12,-12 6.62742,0 12,5.37259 12,12 z"
             transform="matrix(1.4999992,0,0,1.4999992,-29.999795,-238.54282)" />
          <path
             transform="matrix(1.25,0,0,1.25,33,-100.45273)"
             d="m 264,552.36218 c 0,6.62742 -5.37258,12 -12,12 -6.62742,0 -12,-5.37258 -12,-12 0,-6.62741 5.37258,-12 12,-12 6.62742,0 12,5.37259 12,12 z"
             sodipodi:ry="12"
             sodipodi:rx="12"
             sodipodi:cy="552.36218"
             sodipodi:cx="252"
             id="path4400"
             style="color:#000000;fill:#dd4814;fill-opacity:1;fill-rule:nonzero;stroke:none;stroke-width:4;marker:none;visibility:visible;display:inline;overflow:visible;enable-background:accumulate"
             sodipodi:type="arc" />
          <path
             sodipodi:type="star"
             style="color:#000000;fill:#f5f5f5;fill-opacity:1;fill-rule:nonzero;stroke:none;stroke-width:3;marker:none;visibility:visible;display:inline;overflow:visible;enable-background:accumulate"
             id="path4459"
             sodipodi:sides="5"
             sodipodi:cx="666.19574"
             sodipodi:cy="589.50385"
             sodipodi:r1="7.2431178"
             sodipodi:r2="4.3458705"
             sodipodi:arg1="1.0471976"
             sodipodi:arg2="1.6755161"
             inkscape:flatsided="false"
             inkscape:rounded="0.1"
             inkscape:randomized="0"
             d="m 669.8173,595.77657 c -0.39132,0.22593 -3.62645,-1.90343 -4.07583,-1.95066 -0.44938,-0.0472 -4.05653,1.36297 -4.39232,1.06062 -0.3358,-0.30235 0.68963,-4.03715 0.59569,-4.47913 -0.0939,-0.44198 -2.5498,-3.43681 -2.36602,-3.8496 0.18379,-0.41279 4.05267,-0.59166 4.44398,-0.81759 0.39132,-0.22593 2.48067,-3.48704 2.93005,-3.4398 0.44938,0.0472 1.81505,3.67147 2.15084,3.97382 0.3358,0.30236 4.08294,1.2817 4.17689,1.72369 0.0939,0.44198 -2.9309,2.86076 -3.11469,3.27355 -0.18379,0.41279 0.0427,4.27917 -0.34859,4.5051 z"
             transform="matrix(1.511423,-0.16366377,0.16366377,1.511423,-755.37346,-191.93651)" />
        </g>
      </g>
    </g>
  </g>
</svg>
